<mxfile host="app.diagrams.net" modified="2020-08-22T11:46:11.201Z" agent="5.0 (Windows NT 10.0; Win64; x64) AppleWebKit/537.36 (KHTML, like Gecko) Chrome/83.0.4103.106 Safari/537.36" etag="Lggpd901cODGeonaruOc" version="13.0.8" type="github">
  <diagram id="SDLHhQ97ImNHW-FRhA-R" name="第 1 页">
    <mxGraphModel dx="599" dy="339" grid="1" gridSize="10" guides="1" tooltips="1" connect="1" arrows="1" fold="1" page="1" pageScale="1" pageWidth="827" pageHeight="1169" math="0" shadow="0">
      <root>
        <mxCell id="0" />
        <mxCell id="1" parent="0" />
        <mxCell id="ApLLJYLOABcCSLqfN-Mr-3" value="" style="edgeStyle=none;rounded=0;orthogonalLoop=1;jettySize=auto;html=1;startArrow=classic;startFill=1;" edge="1" parent="1" source="ApLLJYLOABcCSLqfN-Mr-1" target="ApLLJYLOABcCSLqfN-Mr-2">
          <mxGeometry relative="1" as="geometry" />
        </mxCell>
        <mxCell id="ApLLJYLOABcCSLqfN-Mr-4" value="RAC" style="edgeLabel;html=1;align=center;verticalAlign=middle;resizable=0;points=[];" vertex="1" connectable="0" parent="ApLLJYLOABcCSLqfN-Mr-3">
          <mxGeometry x="-0.5429" y="-2" relative="1" as="geometry">
            <mxPoint x="24.14" y="-2" as="offset" />
          </mxGeometry>
        </mxCell>
        <mxCell id="ApLLJYLOABcCSLqfN-Mr-8" style="edgeStyle=orthogonalEdgeStyle;rounded=0;orthogonalLoop=1;jettySize=auto;html=1;entryX=0.5;entryY=0;entryDx=0;entryDy=0;entryPerimeter=0;startArrow=none;startFill=0;curved=1;exitX=0.5;exitY=1;exitDx=0;exitDy=0;exitPerimeter=0;endArrow=none;endFill=0;" edge="1" parent="1" source="ApLLJYLOABcCSLqfN-Mr-1" target="ApLLJYLOABcCSLqfN-Mr-5">
          <mxGeometry relative="1" as="geometry" />
        </mxCell>
        <mxCell id="ApLLJYLOABcCSLqfN-Mr-1" value="10.68.1.31" style="outlineConnect=0;dashed=0;verticalLabelPosition=bottom;verticalAlign=top;align=center;html=1;shape=mxgraph.aws3.oracle_db_instance_2;fillColor=#2E73B8;gradientColor=none;" vertex="1" parent="1">
          <mxGeometry x="170" y="300" width="60" height="63" as="geometry" />
        </mxCell>
        <mxCell id="ApLLJYLOABcCSLqfN-Mr-11" style="edgeStyle=orthogonalEdgeStyle;curved=1;rounded=0;orthogonalLoop=1;jettySize=auto;html=1;startArrow=none;startFill=0;exitX=0.5;exitY=1;exitDx=0;exitDy=0;exitPerimeter=0;endArrow=none;endFill=0;" edge="1" parent="1" source="ApLLJYLOABcCSLqfN-Mr-2">
          <mxGeometry relative="1" as="geometry">
            <mxPoint x="270" y="460" as="targetPoint" />
          </mxGeometry>
        </mxCell>
        <mxCell id="ApLLJYLOABcCSLqfN-Mr-2" value="10.68.1.32" style="outlineConnect=0;dashed=0;verticalLabelPosition=bottom;verticalAlign=top;align=center;html=1;shape=mxgraph.aws3.oracle_db_instance_2;fillColor=#2E73B8;gradientColor=none;" vertex="1" parent="1">
          <mxGeometry x="310" y="300" width="60" height="63" as="geometry" />
        </mxCell>
        <mxCell id="ApLLJYLOABcCSLqfN-Mr-5" value="V5000" style="shape=mxgraph.cisco.storage.fibre_channel_disk_subsystem;html=1;dashed=0;fillColor=#036897;strokeColor=#ffffff;strokeWidth=2;verticalLabelPosition=bottom;verticalAlign=top;align=center;" vertex="1" parent="1">
          <mxGeometry x="250" y="460" width="43" height="62" as="geometry" />
        </mxCell>
      </root>
    </mxGraphModel>
  </diagram>
</mxfile>
